PathFileType	4	(X/Y/Z)	Patient4_TMGait_0pt4_02_right_05.trc.trc
DataRate	CameraRate	NumFrames	NumMarkers	Units	OrigDataRate	OrigDataStartFrame	OrigNumFrames
71.428571428571	71.428571428571	4	33	mm	71.428571428571	89	       141
Frame#	Time	Sacral			L.Shoulder			Chest			R.Shoulder			Neck			R.ASIS			L.ASIS			R.Thigh.Superior			R.Thigh.Lateral			R.Thigh.Inferior			R.Patella			L.Thigh.Superior			L.Thigh.Lateral			L.Thigh.Inferior			L.Patella			L.Shank.Superior			L.Shank.Lateral			L.Shank.Inferior			R.Shank.Superior			R.Shank.Lateral			R.Shank.Inferior			R.Heel			R.Midfoot.Superior			R.Midfoot.Lateral			R.Toe			L.Heel			L.Midfoot.Lateral			L.Midfoot.Superior			L.Toe			L.Elbow			L.Wrist			R.Elbow			R.Wrist			
		X1	Y1	Z1	X2	Y2	Z2	X3	Y3	Z3	X4	Y4	Z4	X5	Y5	Z5	X6	Y6	Z6	X7	Y7	Z7	X8	Y8	Z8	X9	Y9	Z9	X10	Y10	Z10	X11	Y11	Z11	X12	Y12	Z12	X13	Y13	Z13	X14	Y14	Z14	X15	Y15	Z15	X16	Y16	Z16	X17	Y17	Z17	X18	Y18	Z18	X19	Y19	Z19	X20	Y20	Z20	X21	Y21	Z21	X22	Y22	Z22	X23	Y23	Z23	X24	Y24	Z24	X25	Y25	Z25	X26	Y26	Z26	X27	Y27	Z27	X28	Y28	Z28	X29	Y29	Z29	X30	Y30	Z30	X31	Y31	Z31	X32	Y32	Z32	X33	Y33	Z33	

89	7.212000000000	862.895130892614	1001.958869221961	461.551664653918	1015.696681958027	1432.270522410338	258.596726632612	1134.759264169750	1368.417139380271	410.153121346782	1066.563589006006	1441.765166532576	590.236321613857	1011.259746501038	1494.539418446313	413.501699888115	1100.079943625146	944.381455155628	560.168811140546	1066.219762815239	959.725311806656	287.652606362293	1132.893822571998	736.867200660710	542.833608657984	1053.710314051433	630.910027201700	615.715085487307	1128.149233472255	568.998358426436	539.601319444438	1119.601312339626	463.756054616262	562.568023410063	1135.454878701794	760.619420878754	315.833906447472	1058.259799474199	634.253635994117	261.333162243082	1155.856681855124	566.802858082157	317.839270197891	1164.434607853771	496.249064414049	326.616114172726	1138.387416607025	421.391180442695	321.611589720807	1049.458440299368	304.793003619124	274.666857042391	1105.857809069897	194.613897592125	343.455238361828	1047.859912013413	393.633187387234	572.400696964731	935.267588757760	344.030284609676	640.730301528829	926.544796779443	234.755948591327	589.758885908438	729.550280382200	146.274213815443	573.614078350664	904.942372181154	116.256158473160	602.671838771655	800.942319922829	97.467972594329	642.960084294179	989.710948499638	33.464736794735	626.203218631444	982.925067843609	38.737946970380	391.258218991148	1052.972552083239	35.718261382241	307.191819262869	1136.905163588526	96.851043488715	330.683785371667	1264.304207552097	45.338251717064	296.304780212145	956.902937730703	1085.399385885639	141.288912157097	1060.704205820175	843.819096193537	117.838496723065	1126.067568781255	1101.111294560252	715.804202241918	1338.844984955688	958.395023788573	682.727528659612	
90	7.226000000000	861.970372455454	1002.106153479874	457.412033391494	1017.159442649266	1432.456235317505	254.872271344089	1134.759429593469	1368.625739118895	407.568128801225	1065.054500423286	1442.124087611698	587.045333755799	1011.383739983444	1494.867199006144	409.740624107828	1098.814590210408	945.011535342814	557.537835917951	1066.579286144669	959.981058158961	284.853960672208	1137.510616015260	739.582069219928	540.378102485709	1061.726982247348	631.836252446074	613.528426788922	1138.387728035302	571.438171029968	537.778930826506	1131.369057360954	464.993479412360	561.399115975107	1134.359819173348	759.759592541431	312.929158936514	1055.918500435137	634.199594531432	258.914628053500	1152.569766021056	566.005240188545	315.881905589699	1160.427186167138	495.568778056639	324.951340224628	1134.252972593203	420.840447035046	320.129477524494	1045.148936513836	304.340448509208	273.496171167884	1100.911962881239	194.292083167797	342.954818314075	1057.819610282232	395.375600515808	571.204508200897	943.402227110211	349.694480047395	639.390721510100	931.663877106195	240.391797259605	589.347893363843	732.353381526469	160.358864027963	573.212007565397	906.088390989494	121.222047270408	602.656946269827	800.965375079142	107.724033153609	642.598481977714	985.741978197330	32.745088032292	626.203815297455	977.319337844294	38.747026427254	391.158624145888	1047.354485942431	35.661634604553	307.082824578191	1131.386253398521	96.679565830771	330.594401732258	1258.787815197887	44.948433603313	296.227999904867	962.092944490129	1085.455491007511	135.811572030664	1073.907246634593	847.147996657971	114.473830352425	1117.080175663383	1100.120230609387	713.135927640432	1320.515572880859	942.376343042049	685.125350299332	
91	7.240000000000	860.929770238133	1002.149100529288	453.449013848777	1018.550588834538	1432.512604954438	251.337467814272	1134.632957417124	1368.737111701001	405.204601109937	1063.370381558845	1442.419256621774	584.043804781179	1011.486278025171	1495.117493492803	406.173024683831	1097.428832974733	945.612791350336	555.144596234685	1066.795082326751	960.205523742962	282.270809360492	1141.972367977931	742.561994036283	537.937959152270	1069.681525765903	633.071744963067	611.362991583006	1148.448043318948	574.317062371630	535.910050660688	1143.125093882088	466.778575138816	559.998877994129	1133.209234231724	758.937105403047	310.295778486680	1053.647763912792	634.129868353676	256.709658621041	1149.353121069416	565.232398558085	314.175561490785	1156.507294304340	494.902126560571	323.555619819768	1130.199679121957	420.306066514630	318.865699856902	1040.926272821132	303.937881493397	272.473779534652	1096.004470276763	193.992525063166	342.571323918446	1067.992903036003	397.518003091773	569.850073385077	951.996824247436	355.496049787372	637.941790096741	937.383990126064	246.243100525799	588.759825921416	736.223270782467	174.272077825311	572.641497061370	908.097823386085	126.590418139327	602.548777069602	802.069182671692	118.159606149333	642.124965998847	982.742338977925	32.205374795134	626.170355261256	971.731098206615	38.757495782351	391.058663697170	1041.758642347515	35.628630302977	306.982770231200	1125.879420902163	96.545012266765	330.525588252829	1253.279337367179	44.623853152385	296.146097246016	967.623986774980	1085.469090051382	130.313944004809	1087.284356311138	850.710961639277	111.249845982987	1107.705629053510	1099.172011456140	710.502551249499	1300.690510392915	927.214062536299	687.501773631816	
92	7.254000000000	859.815412155870	1002.133405506433	449.679912514838	1019.851490105029	1432.491566383314	248.013445097675	1134.376648312022	1368.804163590874	403.065905751167	1061.511296159015	1442.686770335694	581.238995162454	1011.556024788220	1495.331297486965	402.814981742365	1095.961300898273	946.237040979489	552.979432227469	1066.885879001385	960.422313420544	279.899572520722	1146.144123186608	745.795954537510	535.514407793310	1077.379284480890	634.652982204673	609.223256000433	1158.094198852544	577.640650792316	533.991703312561	1154.646907862242	469.131728703347	558.401231549642	1132.018448516471	758.153901078985	307.913242477058	1051.418946306181	634.042376251214	254.734214272219	1146.200784716020	564.479010141657	312.705338812212	1152.674460544347	494.251290805283	322.424896702888	1126.220221682547	419.789970055320	317.823169260696	1036.769441672328	303.590466340400	271.604282119485	1091.117332849556	193.715935351947	342.299817669336	1078.202677703115	400.060712670278	568.373392008940	960.885240542323	361.289873038830	636.398553809128	943.701770218283	252.117631208280	588.017940095116	741.167847951867	187.425807072647	571.910754264679	911.124104704356	132.089026290175	602.321770714327	804.408062549321	128.303099539499	641.544086623310	981.084090083008	31.942914892051	626.086188405590	966.152313490843	38.767840686900	390.962099914596	1036.177110387903	35.615340506131	306.893825623624	1120.376334386747	96.444996338417	330.476260927974	1247.769592470988	44.361753713653	296.062625844429	973.474528294612	1085.493376189527	124.862472802807	1100.777583692876	854.547254636127	108.218120755223	1097.939402461338	1098.321887573063	707.907950078915	1279.499497576249	913.106532063015	689.808599201514	
